# xmcd
#
# Track frame offsets: 
#        182
#        13805
#        26932
#        43825
#        58602
#        69845
#        85587
#        98300
#        110330
#        129580
#
# Disc length: 1987 seconds
#
# Revision: 2
# Processed by: cddbd v1.5PL3 Copyright (c) Steve Scherf et al.
# Submitted via: ExactAudioCopy v0.95a4
#
DISCID=7807c10a
DTITLE=Rick Vincent - A Wanted Man
DYEAR=1992
DGENRE=Country
TTITLE0=The Best Mistakes I Ever Made
TTITLE1=Hello, She Lied
TTITLE2=When The Smoke Clears
TTITLE3=Ain't Been A Train Through Here In Years
TTITLE4=You're Not In This Alone
TTITLE5=Outlaw Heart
TTITLE6=A Wanted Man
TTITLE7=Cottonwood Creek
TTITLE8='Round The Honky-Tonk Bend
TTITLE9=San Joaquin
EXTD=
EXTT0=
EXTT1=
EXTT2=
EXTT3=
EXTT4=
EXTT5=
EXTT6=
EXTT7=
EXTT8=
EXTT9=
PLAYORDER=
